<?xml version="1.0" encoding="UTF-8"?>
<svg id="Camada_3" xmlns="http://www.w3.org/2000/svg" version="1.1" viewBox="0 0 793 199">
  <!-- Generator: Adobe Illustrator 29.7.1, SVG Export Plug-In . SVG Version: 2.1.1 Build 8)  -->
  <defs>
    <style>
      .st0 {
        fill: #49e3e3;
      }

      .st1 {
        display: none;
        font-family: GalanoClassic-Medium, 'Galano Classic';
        font-size: 217.4px;
        font-weight: 500;
        letter-spacing: 0em;
      }

      .st2 {
        fill: #0229c4;
      }
    </style>
  </defs>
  <text class="st1" transform="translate(-27.3 -612.6)"><tspan x="0" y="0">upScale</tspan></text>
  <g>
    <path class="st2" d="M326.5,0c16.3,0,29.8,4.1,40.4,12.4,10.7,8.3,17.4,19.6,20.2,33.9l-23.7,5c-1.7-9.3-5.9-16.7-12.6-22.2-6.7-5.4-15-8.3-24.8-8.3s-16.3,2.2-22.2,6.7-8.9,10.9-8.9,18.9,1.7,10.4,5.2,13.9,8.9,6.3,16.1,8.5l37.4,10.9c23.9,7,35.9,21.7,35.9,43.7s-5.4,26.5-16.3,35.2c-10.9,8.7-25.2,13-42.8,13s-32-4.3-43.9-12.8c-12-8.5-18.9-20.4-20.9-35.9l25.2-5.2c1.7,10.7,6.3,18.9,13.7,24.6,7.4,5.7,16.7,8.5,28,8.5s18.7-2.4,24.6-7.2c5.9-4.8,8.9-11.3,8.9-19.6s-1.7-10.7-5.2-14.3c-3.5-3.7-9.1-6.5-17-8.7l-33.7-9.6c-5.4-1.5-10.2-3.3-14.3-5.2-4.1-2-8.3-4.6-12.4-7.8s-7.4-7.6-9.8-12.8-3.5-11.1-3.5-17.8c0-14.6,5.2-26.1,15.4-34.8,10.2-8.7,23.7-13,40.4-13h.4Z"/>
    <path class="st2" d="M457.8,151.3c7.8,0,14.8-2.2,20.7-6.3,5.9-4.1,10.2-10.2,12.8-18.3l20.9,5.4c-3.3,11.7-9.8,21.1-19.8,28.3-10,7.2-21.5,10.7-34.6,10.7s-30-5.4-41.3-16.1c-11.3-10.7-17-24.3-17-40.9s5.7-30.2,17-40.9c11.3-10.7,25-16.1,41.3-16.1s24.1,3.5,33.9,10.4,16.5,16.3,20.2,28l-21.7,6.3c-2.2-8-6.1-14.1-12-18.3s-12.6-6.3-20.4-6.3-18.9,3.5-25.7,10.4c-6.7,7-10,15.7-10,26.3s3.5,19.3,10.2,26.3c6.7,7,15.4,10.4,25.9,10.4l-.4.4Z"/>
    <path class="st2" d="M644.3,168.3V24.5h22.6v143.8h-22.6Z"/>
    <path class="st2" d="M793,112c-.7-15.9-6.1-28.9-16.5-39.1-10.4-10.2-23-15.2-37.6-15.2s-28.9,5.4-39.8,16.1c-10.9,10.7-16.3,24.3-16.3,41.1s5.4,30.4,16.3,41.1c10.9,10.7,23.7,15.9,38.7,15.9s12.8-.8,18.5-2.5v-21.1c-5.2,2.8-11.3,4.3-18.5,4.3s-15.4-2.8-21.7-8.7c-6.3-5.9-10-13.7-11.1-23.5h87.4l.7-8.3ZM705.3,104.1c1.5-8.3,5.4-14.8,11.7-19.4,6.3-4.6,13.3-7,20.9-7h.4c7.6,0,14.1,2.2,19.6,6.7,5.4,4.6,9.1,11.1,10.9,19.6h-63.5Z"/>
    <path class="st2" d="M240,73.5c-10.6-10.6-23.1-16-37.6-16.1-16.2,0-29.2,5.3-38.9,15.4v-12.4h-22.6v138.6h22.6v-43.1c9.8,10.2,22.8,15.4,39.1,15.4s27.2-5.2,37.6-15.9c10.4-10.6,15.7-24.3,15.7-41.1s-5.2-30.2-15.9-40.9ZM223.9,140.7c-6.7,6.7-15.2,10.6-25.4,10.6s-17.6-3.5-24.8-10.4c-7.2-7-10.6-15.9-10.6-26.7s3.5-19.8,10.6-26.8c7.2-7,15.4-10.4,24.8-10.4s18.7,3.5,25.4,10.2c6.7,6.7,10,15.7,10,26.7s-3.3,20-10,26.7Z"/>
    <path class="st2" d="M115.2,60.4v41.7c0,28.5-23.1,51.6-51.6,51.6s-51.6-23.1-51.6-51.6v-41.7h22.6v41.7c0,16,13,29,29,29s29-13,29-29v-41.7h22.6Z"/>
    <path class="st0" d="M127.2,175.2c-17,14.8-39.3,23.8-63.6,23.8s-46.6-9-63.6-23.8l11.6-20.1c13.4,13.2,31.7,21.2,52,21.2s38.6-8.1,52-21.3l11.6,20.1Z"/>
    <path class="st2" d="M628.4,82.7v85.6h-22.6v-69.2l-69.2,69.2-16-16,63.4-63.4,5.9-5.9h-69.2v-22.6h85.2c2,0,4,.3,5.9.8.8.2,1.5.5,2.3.8,5.9,2.3,10.7,7,12.9,13,.3.7.5,1.5.8,2.3.5,1.8.7,3.6.8,5.5Z"/>
  </g>
</svg>